# xmcd
#
# Track frame offsets:
#	150
#	18115
#	43982
#	60244
#	79559
#	93686
#	119022
#	143342
#	157802
#	177484
#	193220
#	215074
#	235679
#	261765
#
# Disc length: 3782 seconds
#
# Revision: 1
# Processed by: cddbd v1.5.2PL0 Copyright (c) Steve Scherf et al.
# Submitted via: EasyCDDAExtractor 6.5.2.1
#
DISCID=bb0ec40e
DTITLE=Vander Lee - Pensei que fosse o céu
DYEAR=2006
DGENRE=MPB
TTITLE0=Iluminado
TTITLE1=Meu Jardim
TTITLE2=Pensei que fosse o céu
TTITLE3=Chilique
TTITLE4=Passional
TTITLE5=Do Brasil
TTITLE6=A voz
TTITLE7=Pra ser levada em conta
TTITLE8=Breu
TTITLE9=Galo e Cruzeiro
TTITLE10=Tavimatutu
TTITLE11=Tô em liquidação
TTITLE12=No Balanço do balaio
TTITLE13=O dedo do tempo no barro da vida
EXTD=
EXTT0=
EXTT1=
EXTT2=
EXTT3=
EXTT4=
EXTT5=
EXTT6=
EXTT7=
EXTT8=
EXTT9=
EXTT10=
EXTT11=
EXTT12=
EXTT13=
PLAYORDER=
